<svg width="232" height="68" viewBox="0 0 232 68" fill="none" xmlns="http://www.w3.org/2000/svg">
<path d="M16.6113 55.5312C16.6113 54.9336 16.5176 54.4062 16.3301 53.9492C16.1543 53.4805 15.8379 53.0586 15.3809 52.6836C14.9355 52.3086 14.3145 51.9512 13.5176 51.6113C12.7324 51.2715 11.7363 50.9258 10.5293 50.5742C9.26367 50.1992 8.12109 49.7832 7.10156 49.3262C6.08203 48.8574 5.20898 48.3242 4.48242 47.7266C3.75586 47.1289 3.19922 46.4434 2.8125 45.6699C2.42578 44.8965 2.23242 44.0117 2.23242 43.0156C2.23242 42.0195 2.4375 41.0996 2.84766 40.2559C3.25781 39.4121 3.84375 38.6797 4.60547 38.0586C5.37891 37.4258 6.29883 36.9336 7.36523 36.582C8.43164 36.2305 9.62109 36.0547 10.9336 36.0547C12.8555 36.0547 14.4844 36.4238 15.8203 37.1621C17.168 37.8887 18.1934 38.8438 18.8965 40.0273C19.5996 41.1992 19.9512 42.4531 19.9512 43.7891H16.5762C16.5762 42.8281 16.3711 41.9785 15.9609 41.2402C15.5508 40.4902 14.9297 39.9043 14.0977 39.4824C13.2656 39.0488 12.2109 38.832 10.9336 38.832C9.72656 38.832 8.73047 39.0137 7.94531 39.377C7.16016 39.7402 6.57422 40.2324 6.1875 40.8535C5.8125 41.4746 5.625 42.1836 5.625 42.9805C5.625 43.5195 5.73633 44.0117 5.95898 44.457C6.19336 44.8906 6.55078 45.2949 7.03125 45.6699C7.52344 46.0449 8.14453 46.3906 8.89453 46.707C9.65625 47.0234 10.5645 47.3281 11.6191 47.6211C13.0723 48.0312 14.3262 48.4883 15.3809 48.9922C16.4355 49.4961 17.3027 50.0645 17.9824 50.6973C18.6738 51.3184 19.1836 52.0273 19.5117 52.8242C19.8516 53.6094 20.0215 54.5 20.0215 55.4961C20.0215 56.5391 19.8105 57.4824 19.3887 58.3262C18.9668 59.1699 18.3633 59.8906 17.5781 60.4883C16.793 61.0859 15.8496 61.5488 14.748 61.877C13.6582 62.1934 12.4395 62.3516 11.0918 62.3516C9.9082 62.3516 8.74219 62.1875 7.59375 61.8594C6.45703 61.5312 5.41992 61.0391 4.48242 60.3828C3.55664 59.7266 2.8125 58.918 2.25 57.957C1.69922 56.9844 1.42383 55.8594 1.42383 54.582H4.79883C4.79883 55.4609 4.96875 56.2168 5.30859 56.8496C5.64844 57.4707 6.11133 57.9863 6.69727 58.3965C7.29492 58.8066 7.96875 59.1113 8.71875 59.3105C9.48047 59.498 10.2715 59.5918 11.0918 59.5918C12.2754 59.5918 13.2773 59.4277 14.0977 59.0996C14.918 58.7715 15.5391 58.3027 15.9609 57.6934C16.3945 57.084 16.6113 56.3633 16.6113 55.5312ZM37.4766 59.0645L43.9805 64.2148L41.6953 66.3242L35.2969 61.2441L37.4766 59.0645ZM43.8926 48.3945V50.0117C43.8926 51.9336 43.6523 53.6562 43.1719 55.1797C42.6914 56.7031 42 57.998 41.0977 59.0645C40.1953 60.1309 39.1113 60.9453 37.8457 61.5078C36.5918 62.0703 35.1855 62.3516 33.627 62.3516C32.1152 62.3516 30.7266 62.0703 29.4609 61.5078C28.207 60.9453 27.1172 60.1309 26.1914 59.0645C25.2773 57.998 24.5684 56.7031 24.0645 55.1797C23.5605 53.6562 23.3086 51.9336 23.3086 50.0117V48.3945C23.3086 46.4727 23.5547 44.7559 24.0469 43.2441C24.5508 41.7207 25.2598 40.4258 26.1738 39.3594C27.0879 38.2812 28.1719 37.4609 29.4258 36.8984C30.6914 36.3359 32.0801 36.0547 33.5918 36.0547C35.1504 36.0547 36.5625 36.3359 37.8281 36.8984C39.0938 37.4609 40.1777 38.2812 41.0801 39.3594C41.9824 40.4258 42.6738 41.7207 43.1543 43.2441C43.6465 44.7559 43.8926 46.4727 43.8926 48.3945ZM40.5352 50.0117V48.3594C40.5352 46.8359 40.377 45.4883 40.0605 44.3164C39.7559 43.1445 39.3047 42.1602 38.707 41.3633C38.1094 40.5664 37.3828 39.9629 36.5273 39.5527C35.6719 39.1426 34.6934 38.9375 33.5918 38.9375C32.5488 38.9375 31.5996 39.1426 30.7441 39.5527C29.9004 39.9629 29.1738 40.5664 28.5645 41.3633C27.9551 42.1602 27.4863 43.1445 27.1582 44.3164C26.8301 45.4883 26.666 46.8359 26.666 48.3594V50.0117C26.666 51.5469 26.8301 52.9062 27.1582 54.0898C27.4863 55.2617 27.9551 56.252 28.5645 57.0605C29.1855 57.8574 29.9238 58.4609 30.7793 58.8711C31.6348 59.2812 32.584 59.4863 33.627 59.4863C34.7285 59.4863 35.707 59.2812 36.5625 58.8711C37.418 58.4609 38.1387 57.8574 38.7246 57.0605C39.3223 56.252 39.7734 55.2617 40.0781 54.0898C40.3828 52.9062 40.5352 51.5469 40.5352 50.0117ZM63.7734 36.4062H67.1484V53.7207C67.1484 55.6426 66.7207 57.2422 65.8652 58.5195C65.0098 59.7969 63.873 60.7578 62.4551 61.4023C61.0488 62.0352 59.5195 62.3516 57.8672 62.3516C56.1328 62.3516 54.5625 62.0352 53.1562 61.4023C51.7617 60.7578 50.6543 59.7969 49.834 58.5195C49.0254 57.2422 48.6211 55.6426 48.6211 53.7207V36.4062H51.9785V53.7207C51.9785 55.0566 52.2246 56.1582 52.7168 57.0254C53.209 57.8926 53.8945 58.5371 54.7734 58.959C55.6641 59.3809 56.6953 59.5918 57.8672 59.5918C59.0508 59.5918 60.082 59.3809 60.9609 58.959C61.8516 58.5371 62.543 57.8926 63.0352 57.0254C63.5273 56.1582 63.7734 55.0566 63.7734 53.7207V36.4062ZM81.5625 38.6738L73.0898 62H69.627L79.3828 36.4062H81.6152L81.5625 38.6738ZM88.6641 62L80.1738 38.6738L80.1211 36.4062H82.3535L92.1445 62H88.6641ZM88.2246 52.5254V55.3027H73.8457V52.5254H88.2246ZM95.5723 36.4062H104.045C105.967 36.4062 107.59 36.6992 108.914 37.2852C110.25 37.8711 111.264 38.7383 111.955 39.8867C112.658 41.0234 113.01 42.4238 113.01 44.0879C113.01 45.2598 112.77 46.332 112.289 47.3047C111.82 48.2656 111.141 49.0859 110.25 49.7656C109.371 50.4336 108.316 50.9316 107.086 51.2598L106.137 51.6289H98.1738L98.1387 48.8691H104.15C105.369 48.8691 106.383 48.6582 107.191 48.2363C108 47.8027 108.609 47.2227 109.02 46.4961C109.43 45.7695 109.635 44.9668 109.635 44.0879C109.635 43.1035 109.441 42.2422 109.055 41.5039C108.668 40.7656 108.059 40.1973 107.227 39.7988C106.406 39.3887 105.346 39.1836 104.045 39.1836H98.9648V62H95.5723V36.4062ZM110.531 62L104.309 50.3984L107.842 50.3809L114.152 61.7891V62H110.531ZM134.016 59.2402V62H120.463V59.2402H134.016ZM121.148 36.4062V62H117.756V36.4062H121.148ZM132.223 47.4102V50.1699H120.463V47.4102H132.223ZM133.84 36.4062V39.1836H120.463V36.4062H133.84Z" fill="white"/>
<path d="M154.477 59.2402V62H140.924V59.2402H154.477ZM141.609 36.4062V62H138.217V36.4062H141.609ZM152.684 47.4102V50.1699H140.924V47.4102H152.684ZM154.301 36.4062V39.1836H140.924V36.4062H154.301ZM159.855 36.4062L166.5 49.2559L173.162 36.4062H177.012L168.188 52.4375V62H164.795V52.4375L155.971 36.4062H159.855ZM196.559 59.2402V62H183.006V59.2402H196.559ZM183.691 36.4062V62H180.299V36.4062H183.691ZM194.766 47.4102V50.1699H183.006V47.4102H194.766ZM196.383 36.4062V39.1836H183.006V36.4062H196.383ZM214.4 55.5312C214.4 54.9336 214.307 54.4062 214.119 53.9492C213.943 53.4805 213.627 53.0586 213.17 52.6836C212.725 52.3086 212.104 51.9512 211.307 51.6113C210.521 51.2715 209.525 50.9258 208.318 50.5742C207.053 50.1992 205.91 49.7832 204.891 49.3262C203.871 48.8574 202.998 48.3242 202.271 47.7266C201.545 47.1289 200.988 46.4434 200.602 45.6699C200.215 44.8965 200.021 44.0117 200.021 43.0156C200.021 42.0195 200.227 41.0996 200.637 40.2559C201.047 39.4121 201.633 38.6797 202.395 38.0586C203.168 37.4258 204.088 36.9336 205.154 36.582C206.221 36.2305 207.41 36.0547 208.723 36.0547C210.645 36.0547 212.273 36.4238 213.609 37.1621C214.957 37.8887 215.982 38.8438 216.686 40.0273C217.389 41.1992 217.74 42.4531 217.74 43.7891H214.365C214.365 42.8281 214.16 41.9785 213.75 41.2402C213.34 40.4902 212.719 39.9043 211.887 39.4824C211.055 39.0488 210 38.832 208.723 38.832C207.516 38.832 206.52 39.0137 205.734 39.377C204.949 39.7402 204.363 40.2324 203.977 40.8535C203.602 41.4746 203.414 42.1836 203.414 42.9805C203.414 43.5195 203.525 44.0117 203.748 44.457C203.982 44.8906 204.34 45.2949 204.82 45.6699C205.312 46.0449 205.934 46.3906 206.684 46.707C207.445 47.0234 208.354 47.3281 209.408 47.6211C210.861 48.0312 212.115 48.4883 213.17 48.9922C214.225 49.4961 215.092 50.0645 215.771 50.6973C216.463 51.3184 216.973 52.0273 217.301 52.8242C217.641 53.6094 217.811 54.5 217.811 55.4961C217.811 56.5391 217.6 57.4824 217.178 58.3262C216.756 59.1699 216.152 59.8906 215.367 60.4883C214.582 61.0859 213.639 61.5488 212.537 61.877C211.447 62.1934 210.229 62.3516 208.881 62.3516C207.697 62.3516 206.531 62.1875 205.383 61.8594C204.246 61.5312 203.209 61.0391 202.271 60.3828C201.346 59.7266 200.602 58.918 200.039 57.957C199.488 56.9844 199.213 55.8594 199.213 54.582H202.588C202.588 55.4609 202.758 56.2168 203.098 56.8496C203.438 57.4707 203.9 57.9863 204.486 58.3965C205.084 58.8066 205.758 59.1113 206.508 59.3105C207.27 59.498 208.061 59.5918 208.881 59.5918C210.064 59.5918 211.066 59.4277 211.887 59.0996C212.707 58.7715 213.328 58.3027 213.75 57.6934C214.184 57.084 214.4 56.3633 214.4 55.5312Z" fill="#F19115"/>
<path d="M56.5 4C53 7.66667 44.6 16.5 39 22.5L100 11.5L77.5 1L78.5 5.5L86 13L53 19L58 9L56.5 4Z" fill="#F19115" stroke="#F19115"/>
<rect x="36" y="23.0271" width="31.6862" height="17.3334" rx="3" transform="rotate(-9.8583 36 23.0271)" fill="#F19115"/>
<rect x="72.3235" y="16.3185" width="31.0636" height="17.3334" rx="3" transform="rotate(-9.8583 72.3235 16.3185)" fill="#F19115"/>
<path d="M62.9007 17.8647L76.7986 15.26L77.9543 21.4264L64.0563 24.031L62.9007 17.8647Z" fill="#F19115"/>
<rect x="42" y="24.6255" width="21" height="12" rx="1" transform="rotate(-9.94143 42 24.6255)" fill="white"/>
<rect x="78" y="17.6255" width="21" height="12" rx="1" transform="rotate(-9.94143 78 17.6255)" fill="white"/>
<circle cx="53" cy="29" r="4" fill="#F19115"/>
<circle cx="89" cy="22" r="4" fill="#F19115"/>
<circle cx="53.5" cy="29.5" r="1.5" fill="white"/>
<circle cx="89.5" cy="22.5" r="1.5" fill="white"/>
</svg>
